<svg width="33" height="33" viewBox="0 0 33 33" fill="none" xmlns="http://www.w3.org/2000/svg">
<path d="M23.9932 15.2578C23.4198 15.2578 22.9665 14.7911 22.9665 14.2311C22.9665 13.7378 22.4732 12.7111 21.6465 11.8178C20.8332 10.9511 19.9398 10.4444 19.1932 10.4444C18.6198 10.4444 18.1665 9.97778 18.1665 9.41778C18.1665 8.85778 18.6332 8.39111 19.1932 8.39111C20.5265 8.39111 21.9265 9.11111 23.1532 10.4044C24.2998 11.6178 25.0332 13.1244 25.0332 14.2178C25.0332 14.7911 24.5665 15.2578 23.9932 15.2578Z" fill="white"/>
<path d="M28.8068 15.2575C28.2335 15.2575 27.7802 14.7908 27.7802 14.2308C27.7802 9.49749 23.9268 5.65749 19.2068 5.65749C18.6335 5.65749 18.1802 5.19082 18.1802 4.63082C18.1802 4.07082 18.6335 3.59082 19.1935 3.59082C25.0602 3.59082 29.8335 8.36415 29.8335 14.2308C29.8335 14.7908 29.3668 15.2575 28.8068 15.2575Z" fill="white"/>
<path d="M15.2332 20.8575L12.7665 23.3242C12.2465 23.8442 11.4198 23.8442 10.8865 23.3375C10.7398 23.1908 10.5932 23.0575 10.4465 22.9108C9.07317 21.5242 7.83317 20.0708 6.7265 18.5508C5.63317 17.0308 4.75317 15.5108 4.11317 14.0042C3.4865 12.4842 3.1665 11.0308 3.1665 9.64415C3.1665 8.73749 3.3265 7.87082 3.6465 7.07082C3.9665 6.25749 4.47317 5.51082 5.17984 4.84415C6.03317 4.00415 6.9665 3.59082 7.95317 3.59082C8.3265 3.59082 8.69984 3.67082 9.03317 3.83082C9.37984 3.99082 9.6865 4.23082 9.9265 4.57749L13.0198 8.93749C13.2598 9.27082 13.4332 9.57749 13.5532 9.87082C13.6732 10.1508 13.7398 10.4308 13.7398 10.6842C13.7398 11.0042 13.6465 11.3242 13.4598 11.6308C13.2865 11.9375 13.0332 12.2575 12.7132 12.5775L11.6998 13.6308C11.5532 13.7775 11.4865 13.9508 11.4865 14.1642C11.4865 14.2708 11.4998 14.3642 11.5265 14.4708C11.5665 14.5775 11.6065 14.6575 11.6332 14.7375C11.8732 15.1775 12.2865 15.7508 12.8732 16.4442C13.4732 17.1375 14.1132 17.8442 14.8065 18.5508C14.9398 18.6842 15.0865 18.8175 15.2198 18.9508C15.7532 19.4708 15.7665 20.3242 15.2332 20.8575Z" fill="white"/>
<path d="M29.7931 25.3645C29.7931 25.7379 29.7265 26.1245 29.5931 26.4979C29.5531 26.6045 29.5131 26.7112 29.4598 26.8179C29.2331 27.2979 28.9398 27.7512 28.5531 28.1779C27.8998 28.8979 27.1798 29.4179 26.3665 29.7512C26.3531 29.7512 26.3398 29.7645 26.3265 29.7645C25.5398 30.0845 24.6865 30.2579 23.7665 30.2579C22.4065 30.2579 20.9531 29.9379 19.4198 29.2845C17.8865 28.6312 16.3531 27.7512 14.8331 26.6445C14.3131 26.2579 13.7931 25.8712 13.2998 25.4579L17.6598 21.0979C18.0331 21.3779 18.3665 21.5912 18.6465 21.7379C18.7131 21.7645 18.7931 21.8045 18.8865 21.8445C18.9931 21.8845 19.0998 21.8979 19.2198 21.8979C19.4465 21.8979 19.6198 21.8179 19.7665 21.6712L20.7798 20.6712C21.1131 20.3379 21.4331 20.0845 21.7398 19.9245C22.0465 19.7379 22.3531 19.6445 22.6865 19.6445C22.9398 19.6445 23.2065 19.6979 23.4998 19.8179C23.7931 19.9379 24.0998 20.1112 24.4331 20.3379L28.8465 23.4712C29.1931 23.7112 29.4331 23.9912 29.5798 24.3245C29.7131 24.6579 29.7931 24.9912 29.7931 25.3645Z" fill="white"/>
</svg>
