<svg width="201" height="43" viewBox="0 0 201 43" fill="none" xmlns="http://www.w3.org/2000/svg">
<g filter="url(#filter0_d_12671_1479)">
<path d="M43.3672 34.4243H37.2266V14.4087L26.4219 33.4165C26.1562 33.9009 25.7812 34.2681 25.2969 34.5181C24.8281 34.7681 24.3203 34.8931 23.7734 34.8931C23.2422 34.8931 22.7422 34.7681 22.2734 34.5181C21.8203 34.2681 21.4609 33.9009 21.1953 33.4165L10.3438 14.4087V34.4243H4.25V3.4165C4.25 2.71338 4.45312 2.08838 4.85938 1.5415C5.28125 0.994629 5.82812 0.627441 6.5 0.439941C6.82812 0.361816 7.15625 0.338379 7.48438 0.369629C7.8125 0.385254 8.125 0.455566 8.42188 0.580566C8.73438 0.689941 9.01562 0.854004 9.26562 1.07275C9.51562 1.27588 9.72656 1.52588 9.89844 1.82275L23.7734 25.9399L37.6484 1.82275C38.0078 1.229 38.5 0.807129 39.125 0.557129C39.7656 0.307129 40.4297 0.268066 41.1172 0.439941C41.7734 0.627441 42.3125 0.994629 42.7344 1.5415C43.1562 2.08838 43.3672 2.71338 43.3672 3.4165V34.4243ZM77.1641 25.8696C77.1641 26.9165 77.0312 27.8618 76.7656 28.7056C76.5 29.5337 76.1484 30.2681 75.7109 30.9087C75.2734 31.5337 74.7656 32.0728 74.1875 32.5259C73.6094 32.9634 73 33.3228 72.3594 33.604C71.7344 33.8853 71.0938 34.0962 70.4375 34.2368C69.7969 34.3618 69.1875 34.4243 68.6094 34.4243H57.6172C56.7734 34.4243 55.8516 34.2759 54.8516 33.979C53.8516 33.6821 52.9219 33.1978 52.0625 32.5259C51.2188 31.8384 50.5078 30.9556 49.9297 29.8774C49.3672 28.7837 49.0859 27.4478 49.0859 25.8696V17.6196C49.0859 16.0571 49.3672 14.7368 49.9297 13.6587C50.5078 12.5649 51.2188 11.6821 52.0625 11.0103C52.9219 10.3228 53.8516 9.83057 54.8516 9.53369C55.8516 9.23682 56.7734 9.08838 57.6172 9.08838H68.6094C70.1719 9.08838 71.5 9.36963 72.5938 9.93213C73.6875 10.4946 74.5703 11.2056 75.2422 12.0649C75.9141 12.9087 76.3984 13.8306 76.6953 14.8306C77.0078 15.8306 77.1641 16.7603 77.1641 17.6196V25.8696ZM71.0703 17.6665C71.0703 16.8228 70.8594 16.1978 70.4375 15.7915C70.0156 15.3853 69.4062 15.1821 68.6094 15.1821H57.6641C56.8516 15.1821 56.2344 15.3931 55.8125 15.8149C55.3906 16.2212 55.1797 16.8228 55.1797 17.6196V25.8696C55.1797 26.6665 55.3906 27.2759 55.8125 27.6978C56.2344 28.1196 56.8516 28.3306 57.6641 28.3306H68.6094C69.4375 28.3306 70.0547 28.1196 70.4609 27.6978C70.8672 27.2759 71.0703 26.6665 71.0703 25.8696V17.6665ZM142.062 17.479C142.062 18.3228 141.914 19.2368 141.617 20.2212C141.32 21.1899 140.836 22.0962 140.164 22.9399C139.508 23.7681 138.641 24.4634 137.562 25.0259C136.5 25.5884 135.203 25.8696 133.672 25.8696H122.68V20.0806H133.672C134.5 20.0806 135.141 19.8306 135.594 19.3306C136.047 18.8149 136.273 18.1821 136.273 17.4321C136.273 16.6353 136.016 16.0103 135.5 15.5571C135 15.104 134.391 14.8774 133.672 14.8774H122.68C121.852 14.8774 121.211 15.1353 120.758 15.6509C120.305 16.1509 120.078 16.7759 120.078 17.5259V26.0337C120.078 26.8462 120.328 27.479 120.828 27.9321C121.344 28.3853 121.977 28.6118 122.727 28.6118H133.672V34.4243H122.68C121.836 34.4243 120.922 34.2759 119.938 33.979C118.969 33.6821 118.062 33.2056 117.219 32.5493C116.391 31.8774 115.695 31.0103 115.133 29.9478C114.57 28.8696 114.289 27.5649 114.289 26.0337V17.479C114.289 16.6353 114.438 15.729 114.734 14.7603C115.031 13.7759 115.508 12.8696 116.164 12.0415C116.836 11.1978 117.703 10.4946 118.766 9.93213C119.844 9.36963 121.148 9.08838 122.68 9.08838H133.672C134.516 9.08838 135.422 9.23682 136.391 9.53369C137.375 9.83057 138.281 10.3149 139.109 10.9868C139.953 11.6431 140.656 12.5103 141.219 13.5884C141.781 14.6509 142.062 15.9478 142.062 17.479ZM168.336 15.1821H154.625C153.797 15.1821 153.172 15.3931 152.75 15.8149C152.328 16.2212 152.117 16.8228 152.117 17.6196V34.4243H146.023V17.6196C146.023 16.5728 146.156 15.6353 146.422 14.8071C146.688 13.979 147.039 13.2524 147.477 12.6274C147.93 11.9868 148.445 11.4478 149.023 11.0103C149.602 10.5571 150.203 10.1899 150.828 9.90869C151.469 9.62744 152.109 9.42432 152.75 9.29932C153.406 9.15869 154.016 9.08838 154.578 9.08838H168.336V15.1821ZM196.859 25.8696C196.859 26.9165 196.727 27.8618 196.461 28.7056C196.195 29.5337 195.844 30.2681 195.406 30.9087C194.969 31.5337 194.461 32.0728 193.883 32.5259C193.305 32.9634 192.695 33.3228 192.055 33.604C191.43 33.8853 190.789 34.0962 190.133 34.2368C189.492 34.3618 188.883 34.4243 188.305 34.4243H171.805V28.3306H188.258C189.086 28.3306 189.711 28.1196 190.133 27.6978C190.555 27.2759 190.766 26.6665 190.766 25.8696C190.688 24.2446 189.867 23.4321 188.305 23.4321H178.859C177.516 23.4321 176.375 23.1978 175.438 22.729C174.5 22.2603 173.734 21.6743 173.141 20.9712C172.562 20.2681 172.141 19.5103 171.875 18.6978C171.625 17.8853 171.5 17.1274 171.5 16.4243C171.5 15.0649 171.742 13.9243 172.227 13.0024C172.711 12.0649 173.32 11.3071 174.055 10.729C174.789 10.1509 175.586 9.73682 176.445 9.48682C177.305 9.22119 178.109 9.08838 178.859 9.08838H193.836V15.1821H178.906C178.594 15.1821 178.344 15.2212 178.156 15.2993C177.984 15.3618 177.852 15.4556 177.758 15.5806C177.68 15.6899 177.633 15.8149 177.617 15.9556C177.602 16.0806 177.594 16.2056 177.594 16.3306C177.609 16.5806 177.656 16.7759 177.734 16.9165C177.812 17.0571 177.906 17.1587 178.016 17.2212C178.141 17.2837 178.273 17.3228 178.414 17.3384C178.57 17.3384 178.719 17.3384 178.859 17.3384H188.305C189.867 17.3384 191.195 17.6196 192.289 18.1821C193.383 18.7446 194.266 19.4556 194.938 20.3149C195.609 21.1587 196.094 22.0806 196.391 23.0806C196.703 24.0806 196.859 25.0103 196.859 25.8696Z" fill="white"/>
<path d="M112.602 9.08838C111.914 11.229 111.109 13.3384 110.188 15.4165C109.266 17.4946 108.203 19.479 107 21.3696C105.812 23.2446 104.477 24.9868 102.992 26.5962C101.523 28.1899 99.8906 29.5728 98.0938 30.7446C96.3125 31.9009 94.3672 32.8149 92.2578 33.4868C90.1641 34.1431 87.8906 34.4712 85.4375 34.4712C85.0156 34.4712 84.6172 34.3931 84.2422 34.2368C83.8672 34.0806 83.5391 33.8696 83.2578 33.604C82.9766 33.3228 82.7578 33.0024 82.6016 32.6431C82.4453 32.2681 82.3672 31.8696 82.3672 31.4478V9.08838H88.4609V28.1431C89.9453 28.1431 91.3672 27.8228 92.7266 27.1821C94.1016 26.5415 95.3984 25.6978 96.6172 24.6509C97.8359 23.5884 98.9609 22.3853 99.9922 21.0415C101.039 19.6978 101.969 18.3228 102.781 16.9165C103.594 15.4946 104.281 14.104 104.844 12.7446C105.422 11.3853 105.852 10.1665 106.133 9.08838H112.602Z" fill="#3676FA"/>
</g>
<defs>
<filter id="filter0_d_12671_1479" x="0.25" y="0.182129" width="200.609" height="42.7109" filterUnits="userSpaceOnUse" color-interpolation-filters="sRGB">
<feFlood flood-opacity="0" result="BackgroundImageFix"/>
<feColorMatrix in="SourceAlpha" type="matrix" values="0 0 0 0 0 0 0 0 0 0 0 0 0 0 0 0 0 0 127 0" result="hardAlpha"/>
<feOffset dy="4"/>
<feGaussianBlur stdDeviation="2"/>
<feComposite in2="hardAlpha" operator="out"/>
<feColorMatrix type="matrix" values="0 0 0 0 0 0 0 0 0 0 0 0 0 0 0 0 0 0 0.25 0"/>
<feBlend mode="normal" in2="BackgroundImageFix" result="effect1_dropShadow_12671_1479"/>
<feBlend mode="normal" in="SourceGraphic" in2="effect1_dropShadow_12671_1479" result="shape"/>
</filter>
</defs>
</svg>
