<svg width="101" height="100" viewBox="0 0 101 100" fill="none" xmlns="http://www.w3.org/2000/svg">
<rect x="0.0283203" width="100" height="100" fill="#7D42DC"/>
<mask id="path-2-outside-1_12674_1677" maskUnits="userSpaceOnUse" x="20.9033" y="21.5632" width="58" height="57" fill="black">
<rect fill="white" x="20.9033" y="21.5632" width="58" height="57"/>
<path d="M74.2889 22.5632H25.7677C23.6371 22.5632 21.9033 24.2964 21.9033 26.4276V64.0207C21.9033 66.1514 23.6371 67.8851 25.7677 67.8851H40.0046V70.5914H36.6002C34.7127 70.5914 33.1771 72.127 33.1771 74.0145V76.707C33.1771 77.1101 33.5039 77.4376 33.9077 77.4376H66.1496C66.5527 77.4376 66.8802 77.1107 66.8802 76.707V74.0145C66.8802 72.127 65.3446 70.5914 63.4571 70.5914H60.0527V67.8851H74.2896C76.4202 67.8851 78.1539 66.1514 78.1539 64.0207V26.4276C78.1533 24.2964 76.4196 22.5632 74.2889 22.5632ZM25.7677 24.0239H74.2889C75.6139 24.0239 76.6921 25.102 76.6921 26.427V59.7926H23.3646V26.4276C23.3646 25.102 24.4427 24.0239 25.7677 24.0239ZM65.4183 74.0145V75.9764H34.6377V74.0145C34.6377 72.9326 35.5177 72.0526 36.5996 72.0526H63.4564C64.5383 72.052 65.4183 72.9326 65.4183 74.0145ZM58.5908 70.5914H41.4658V67.8851H58.5908V70.5914ZM74.2889 66.4239H25.7677C24.4427 66.4239 23.3646 65.3457 23.3646 64.0207V61.2539H76.6927V64.0207C76.6921 65.3457 75.6139 66.4239 74.2889 66.4239ZM50.0283 61.4664C48.7202 61.4664 47.6558 62.5307 47.6558 63.8389C47.6558 65.147 48.7202 66.2114 50.0283 66.2114C51.3364 66.2114 52.4008 65.147 52.4008 63.8389C52.4008 62.5307 51.3364 61.4664 50.0283 61.4664ZM50.0283 64.7501C49.5258 64.7501 49.1171 64.3414 49.1171 63.8389C49.1171 63.3364 49.5258 62.9276 50.0283 62.9276C50.5308 62.9276 50.9396 63.3364 50.9396 63.8389C50.9396 64.3414 50.5308 64.7501 50.0283 64.7501ZM50.0283 58.1539C58.9858 58.1539 66.2739 50.8664 66.2739 41.9082C66.2739 32.9501 58.9864 25.6626 50.0283 25.6626C41.0702 25.6626 33.7827 32.9501 33.7827 41.9082C33.7827 50.8664 41.0702 58.1539 50.0283 58.1539ZM36.1714 47.0626H41.4433C41.7802 48.9089 42.2871 50.582 42.9258 52.0389C41.9877 52.3401 41.1346 52.7014 40.3977 53.1164C38.5208 51.5014 37.0527 49.4239 36.1714 47.0626ZM35.2439 41.9082C35.2439 40.6332 35.4058 39.3957 35.7108 38.2151H64.3458C64.6508 39.3957 64.8127 40.6332 64.8127 41.9082C64.8127 43.1832 64.6508 44.4207 64.3458 45.6014H62.2771C62.2202 45.4476 62.1158 45.3145 61.9746 45.2289L57.5502 42.5389L59.3671 40.5626C59.5727 40.3389 59.6183 40.0114 59.4821 39.7401C59.3458 39.4689 59.0564 39.3101 58.7533 39.342L50.0627 40.2557C49.8358 40.2795 49.6333 40.4082 49.5146 40.6026C49.3958 40.7976 49.3752 41.0364 49.4583 41.2489L51.1646 45.6026H35.7108C35.4058 44.4207 35.2439 43.1832 35.2439 41.9082ZM50.7589 32.8014C52.4971 32.7539 54.1802 32.5364 55.7046 32.1751C56.3083 33.5039 56.7946 35.0489 57.1258 36.7545H50.7589V32.8014ZM50.7589 31.3395V27.1976C52.3508 27.5082 53.8371 28.8176 55.0164 30.837C53.6989 31.1239 52.2546 31.297 50.7589 31.3395ZM54.6133 27.8526C55.9664 28.2951 57.2339 28.9276 58.3846 29.7189C57.8108 29.997 57.1727 30.2439 56.4827 30.4557C55.9264 29.4426 55.2989 28.567 54.6133 27.8526ZM49.2977 27.1982V31.3401C47.8021 31.2976 46.3577 31.1239 45.0402 30.8376C46.2196 28.8176 47.7064 27.5082 49.2977 27.1982ZM43.5739 30.4557C42.8839 30.2439 42.2452 29.997 41.6721 29.7189C42.8227 28.9276 44.0902 28.2951 45.4433 27.8526C44.7577 28.567 44.1296 29.4426 43.5739 30.4557ZM49.2977 32.8014V36.7545H42.9314C43.2627 35.0489 43.7489 33.5039 44.3527 32.1751C45.8764 32.5364 47.5596 32.7532 49.2977 32.8014ZM49.2977 51.0157C47.5596 51.0632 45.8764 51.2807 44.3521 51.642C43.7483 50.3132 43.2621 48.7682 42.9308 47.0626H49.2977V51.0157ZM49.2977 52.4776V56.6195C47.7058 56.3089 46.2196 54.9995 45.0402 52.9801C46.3577 52.6932 47.8021 52.5201 49.2977 52.4776ZM45.4433 55.9645C44.0902 55.522 42.8227 54.8895 41.6721 54.0982C42.2458 53.8201 42.8839 53.5732 43.5739 53.3614C44.1296 54.3745 44.7577 55.2501 45.4433 55.9645ZM50.7589 56.6182V52.4776C52.2521 52.5201 53.6933 52.6926 55.0083 52.9782C53.8239 54.9989 52.3358 56.3064 50.7589 56.6182ZM56.4777 53.3595C57.1696 53.572 57.8096 53.8189 58.3846 54.0976C57.2308 54.8907 55.9596 55.5245 54.6021 55.9676C55.2889 55.2532 55.9196 54.377 56.4777 53.3595ZM50.7589 51.0157V47.0626H51.7364L52.6464 49.3845C52.7564 49.6645 53.0264 49.8482 53.3264 49.8482H53.3352C53.6389 49.8445 53.9089 49.6532 54.0127 49.3676L54.9314 46.8451L56.9133 48.0501C56.5983 49.3689 56.1864 50.5751 55.7002 51.6407C54.1777 51.2801 52.4958 51.0632 50.7589 51.0157ZM54.9296 45.1339C54.8139 45.0632 54.6821 45.0276 54.5502 45.0276C54.4689 45.0276 54.3871 45.0414 54.3083 45.0689C54.1021 45.1414 53.9389 45.3026 53.8639 45.5082L53.3021 47.0514L51.1689 41.6076L56.9839 40.9964L55.8721 42.2057C55.7239 42.367 55.6558 42.5857 55.6864 42.8026C55.7171 43.0195 55.8433 43.2107 56.0302 43.3245L60.5914 46.0976L59.4908 47.9076L54.9296 45.1339ZM59.6589 53.1164C58.9214 52.7007 58.0671 52.3389 57.1277 52.0376C57.5539 51.067 57.9214 49.9982 58.2196 48.8445L59.3552 49.5351C59.7002 49.7445 60.1496 49.6351 60.3589 49.2907L61.7139 47.0626H63.8852C63.0039 49.4239 61.5358 51.5014 59.6589 53.1164ZM63.8852 36.7545H58.6133C58.2764 34.9082 57.7696 33.2351 57.1308 31.7782C58.0689 31.477 58.9221 31.1157 59.6589 30.7007C61.5358 32.3157 63.0039 34.3932 63.8852 36.7545ZM40.3977 30.7001C41.1339 31.1151 41.9877 31.4764 42.9258 31.7776C42.2871 33.2345 41.7808 34.9076 41.4433 36.7539H36.1714C37.0527 34.3932 38.5202 32.3157 40.3977 30.7001Z"/>
</mask>
<path d="M74.2889 22.5632H25.7677C23.6371 22.5632 21.9033 24.2964 21.9033 26.4276V64.0207C21.9033 66.1514 23.6371 67.8851 25.7677 67.8851H40.0046V70.5914H36.6002C34.7127 70.5914 33.1771 72.127 33.1771 74.0145V76.707C33.1771 77.1101 33.5039 77.4376 33.9077 77.4376H66.1496C66.5527 77.4376 66.8802 77.1107 66.8802 76.707V74.0145C66.8802 72.127 65.3446 70.5914 63.4571 70.5914H60.0527V67.8851H74.2896C76.4202 67.8851 78.1539 66.1514 78.1539 64.0207V26.4276C78.1533 24.2964 76.4196 22.5632 74.2889 22.5632ZM25.7677 24.0239H74.2889C75.6139 24.0239 76.6921 25.102 76.6921 26.427V59.7926H23.3646V26.4276C23.3646 25.102 24.4427 24.0239 25.7677 24.0239ZM65.4183 74.0145V75.9764H34.6377V74.0145C34.6377 72.9326 35.5177 72.0526 36.5996 72.0526H63.4564C64.5383 72.052 65.4183 72.9326 65.4183 74.0145ZM58.5908 70.5914H41.4658V67.8851H58.5908V70.5914ZM74.2889 66.4239H25.7677C24.4427 66.4239 23.3646 65.3457 23.3646 64.0207V61.2539H76.6927V64.0207C76.6921 65.3457 75.6139 66.4239 74.2889 66.4239ZM50.0283 61.4664C48.7202 61.4664 47.6558 62.5307 47.6558 63.8389C47.6558 65.147 48.7202 66.2114 50.0283 66.2114C51.3364 66.2114 52.4008 65.147 52.4008 63.8389C52.4008 62.5307 51.3364 61.4664 50.0283 61.4664ZM50.0283 64.7501C49.5258 64.7501 49.1171 64.3414 49.1171 63.8389C49.1171 63.3364 49.5258 62.9276 50.0283 62.9276C50.5308 62.9276 50.9396 63.3364 50.9396 63.8389C50.9396 64.3414 50.5308 64.7501 50.0283 64.7501ZM50.0283 58.1539C58.9858 58.1539 66.2739 50.8664 66.2739 41.9082C66.2739 32.9501 58.9864 25.6626 50.0283 25.6626C41.0702 25.6626 33.7827 32.9501 33.7827 41.9082C33.7827 50.8664 41.0702 58.1539 50.0283 58.1539ZM36.1714 47.0626H41.4433C41.7802 48.9089 42.2871 50.582 42.9258 52.0389C41.9877 52.3401 41.1346 52.7014 40.3977 53.1164C38.5208 51.5014 37.0527 49.4239 36.1714 47.0626ZM35.2439 41.9082C35.2439 40.6332 35.4058 39.3957 35.7108 38.2151H64.3458C64.6508 39.3957 64.8127 40.6332 64.8127 41.9082C64.8127 43.1832 64.6508 44.4207 64.3458 45.6014H62.2771C62.2202 45.4476 62.1158 45.3145 61.9746 45.2289L57.5502 42.5389L59.3671 40.5626C59.5727 40.3389 59.6183 40.0114 59.4821 39.7401C59.3458 39.4689 59.0564 39.3101 58.7533 39.342L50.0627 40.2557C49.8358 40.2795 49.6333 40.4082 49.5146 40.6026C49.3958 40.7976 49.3752 41.0364 49.4583 41.2489L51.1646 45.6026H35.7108C35.4058 44.4207 35.2439 43.1832 35.2439 41.9082ZM50.7589 32.8014C52.4971 32.7539 54.1802 32.5364 55.7046 32.1751C56.3083 33.5039 56.7946 35.0489 57.1258 36.7545H50.7589V32.8014ZM50.7589 31.3395V27.1976C52.3508 27.5082 53.8371 28.8176 55.0164 30.837C53.6989 31.1239 52.2546 31.297 50.7589 31.3395ZM54.6133 27.8526C55.9664 28.2951 57.2339 28.9276 58.3846 29.7189C57.8108 29.997 57.1727 30.2439 56.4827 30.4557C55.9264 29.4426 55.2989 28.567 54.6133 27.8526ZM49.2977 27.1982V31.3401C47.8021 31.2976 46.3577 31.1239 45.0402 30.8376C46.2196 28.8176 47.7064 27.5082 49.2977 27.1982ZM43.5739 30.4557C42.8839 30.2439 42.2452 29.997 41.6721 29.7189C42.8227 28.9276 44.0902 28.2951 45.4433 27.8526C44.7577 28.567 44.1296 29.4426 43.5739 30.4557ZM49.2977 32.8014V36.7545H42.9314C43.2627 35.0489 43.7489 33.5039 44.3527 32.1751C45.8764 32.5364 47.5596 32.7532 49.2977 32.8014ZM49.2977 51.0157C47.5596 51.0632 45.8764 51.2807 44.3521 51.642C43.7483 50.3132 43.2621 48.7682 42.9308 47.0626H49.2977V51.0157ZM49.2977 52.4776V56.6195C47.7058 56.3089 46.2196 54.9995 45.0402 52.9801C46.3577 52.6932 47.8021 52.5201 49.2977 52.4776ZM45.4433 55.9645C44.0902 55.522 42.8227 54.8895 41.6721 54.0982C42.2458 53.8201 42.8839 53.5732 43.5739 53.3614C44.1296 54.3745 44.7577 55.2501 45.4433 55.9645ZM50.7589 56.6182V52.4776C52.2521 52.5201 53.6933 52.6926 55.0083 52.9782C53.8239 54.9989 52.3358 56.3064 50.7589 56.6182ZM56.4777 53.3595C57.1696 53.572 57.8096 53.8189 58.3846 54.0976C57.2308 54.8907 55.9596 55.5245 54.6021 55.9676C55.2889 55.2532 55.9196 54.377 56.4777 53.3595ZM50.7589 51.0157V47.0626H51.7364L52.6464 49.3845C52.7564 49.6645 53.0264 49.8482 53.3264 49.8482H53.3352C53.6389 49.8445 53.9089 49.6532 54.0127 49.3676L54.9314 46.8451L56.9133 48.0501C56.5983 49.3689 56.1864 50.5751 55.7002 51.6407C54.1777 51.2801 52.4958 51.0632 50.7589 51.0157ZM54.9296 45.1339C54.8139 45.0632 54.6821 45.0276 54.5502 45.0276C54.4689 45.0276 54.3871 45.0414 54.3083 45.0689C54.1021 45.1414 53.9389 45.3026 53.8639 45.5082L53.3021 47.0514L51.1689 41.6076L56.9839 40.9964L55.8721 42.2057C55.7239 42.367 55.6558 42.5857 55.6864 42.8026C55.7171 43.0195 55.8433 43.2107 56.0302 43.3245L60.5914 46.0976L59.4908 47.9076L54.9296 45.1339ZM59.6589 53.1164C58.9214 52.7007 58.0671 52.3389 57.1277 52.0376C57.5539 51.067 57.9214 49.9982 58.2196 48.8445L59.3552 49.5351C59.7002 49.7445 60.1496 49.6351 60.3589 49.2907L61.7139 47.0626H63.8852C63.0039 49.4239 61.5358 51.5014 59.6589 53.1164ZM63.8852 36.7545H58.6133C58.2764 34.9082 57.7696 33.2351 57.1308 31.7782C58.0689 31.477 58.9221 31.1157 59.6589 30.7007C61.5358 32.3157 63.0039 34.3932 63.8852 36.7545ZM40.3977 30.7001C41.1339 31.1151 41.9877 31.4764 42.9258 31.7776C42.2871 33.2345 41.7808 34.9076 41.4433 36.7539H36.1714C37.0527 34.3932 38.5202 32.3157 40.3977 30.7001Z" fill="white"/>
<path d="M74.2889 22.5632H25.7677C23.6371 22.5632 21.9033 24.2964 21.9033 26.4276V64.0207C21.9033 66.1514 23.6371 67.8851 25.7677 67.8851H40.0046V70.5914H36.6002C34.7127 70.5914 33.1771 72.127 33.1771 74.0145V76.707C33.1771 77.1101 33.5039 77.4376 33.9077 77.4376H66.1496C66.5527 77.4376 66.8802 77.1107 66.8802 76.707V74.0145C66.8802 72.127 65.3446 70.5914 63.4571 70.5914H60.0527V67.8851H74.2896C76.4202 67.8851 78.1539 66.1514 78.1539 64.0207V26.4276C78.1533 24.2964 76.4196 22.5632 74.2889 22.5632ZM25.7677 24.0239H74.2889C75.6139 24.0239 76.6921 25.102 76.6921 26.427V59.7926H23.3646V26.4276C23.3646 25.102 24.4427 24.0239 25.7677 24.0239ZM65.4183 74.0145V75.9764H34.6377V74.0145C34.6377 72.9326 35.5177 72.0526 36.5996 72.0526H63.4564C64.5383 72.052 65.4183 72.9326 65.4183 74.0145ZM58.5908 70.5914H41.4658V67.8851H58.5908V70.5914ZM74.2889 66.4239H25.7677C24.4427 66.4239 23.3646 65.3457 23.3646 64.0207V61.2539H76.6927V64.0207C76.6921 65.3457 75.6139 66.4239 74.2889 66.4239ZM50.0283 61.4664C48.7202 61.4664 47.6558 62.5307 47.6558 63.8389C47.6558 65.147 48.7202 66.2114 50.0283 66.2114C51.3364 66.2114 52.4008 65.147 52.4008 63.8389C52.4008 62.5307 51.3364 61.4664 50.0283 61.4664ZM50.0283 64.7501C49.5258 64.7501 49.1171 64.3414 49.1171 63.8389C49.1171 63.3364 49.5258 62.9276 50.0283 62.9276C50.5308 62.9276 50.9396 63.3364 50.9396 63.8389C50.9396 64.3414 50.5308 64.7501 50.0283 64.7501ZM50.0283 58.1539C58.9858 58.1539 66.2739 50.8664 66.2739 41.9082C66.2739 32.9501 58.9864 25.6626 50.0283 25.6626C41.0702 25.6626 33.7827 32.9501 33.7827 41.9082C33.7827 50.8664 41.0702 58.1539 50.0283 58.1539ZM36.1714 47.0626H41.4433C41.7802 48.9089 42.2871 50.582 42.9258 52.0389C41.9877 52.3401 41.1346 52.7014 40.3977 53.1164C38.5208 51.5014 37.0527 49.4239 36.1714 47.0626ZM35.2439 41.9082C35.2439 40.6332 35.4058 39.3957 35.7108 38.2151H64.3458C64.6508 39.3957 64.8127 40.6332 64.8127 41.9082C64.8127 43.1832 64.6508 44.4207 64.3458 45.6014H62.2771C62.2202 45.4476 62.1158 45.3145 61.9746 45.2289L57.5502 42.5389L59.3671 40.5626C59.5727 40.3389 59.6183 40.0114 59.4821 39.7401C59.3458 39.4689 59.0564 39.3101 58.7533 39.342L50.0627 40.2557C49.8358 40.2795 49.6333 40.4082 49.5146 40.6026C49.3958 40.7976 49.3752 41.0364 49.4583 41.2489L51.1646 45.6026H35.7108C35.4058 44.4207 35.2439 43.1832 35.2439 41.9082ZM50.7589 32.8014C52.4971 32.7539 54.1802 32.5364 55.7046 32.1751C56.3083 33.5039 56.7946 35.0489 57.1258 36.7545H50.7589V32.8014ZM50.7589 31.3395V27.1976C52.3508 27.5082 53.8371 28.8176 55.0164 30.837C53.6989 31.1239 52.2546 31.297 50.7589 31.3395ZM54.6133 27.8526C55.9664 28.2951 57.2339 28.9276 58.3846 29.7189C57.8108 29.997 57.1727 30.2439 56.4827 30.4557C55.9264 29.4426 55.2989 28.567 54.6133 27.8526ZM49.2977 27.1982V31.3401C47.8021 31.2976 46.3577 31.1239 45.0402 30.8376C46.2196 28.8176 47.7064 27.5082 49.2977 27.1982ZM43.5739 30.4557C42.8839 30.2439 42.2452 29.997 41.6721 29.7189C42.8227 28.9276 44.0902 28.2951 45.4433 27.8526C44.7577 28.567 44.1296 29.4426 43.5739 30.4557ZM49.2977 32.8014V36.7545H42.9314C43.2627 35.0489 43.7489 33.5039 44.3527 32.1751C45.8764 32.5364 47.5596 32.7532 49.2977 32.8014ZM49.2977 51.0157C47.5596 51.0632 45.8764 51.2807 44.3521 51.642C43.7483 50.3132 43.2621 48.7682 42.9308 47.0626H49.2977V51.0157ZM49.2977 52.4776V56.6195C47.7058 56.3089 46.2196 54.9995 45.0402 52.9801C46.3577 52.6932 47.8021 52.5201 49.2977 52.4776ZM45.4433 55.9645C44.0902 55.522 42.8227 54.8895 41.6721 54.0982C42.2458 53.8201 42.8839 53.5732 43.5739 53.3614C44.1296 54.3745 44.7577 55.2501 45.4433 55.9645ZM50.7589 56.6182V52.4776C52.2521 52.5201 53.6933 52.6926 55.0083 52.9782C53.8239 54.9989 52.3358 56.3064 50.7589 56.6182ZM56.4777 53.3595C57.1696 53.572 57.8096 53.8189 58.3846 54.0976C57.2308 54.8907 55.9596 55.5245 54.6021 55.9676C55.2889 55.2532 55.9196 54.377 56.4777 53.3595ZM50.7589 51.0157V47.0626H51.7364L52.6464 49.3845C52.7564 49.6645 53.0264 49.8482 53.3264 49.8482H53.3352C53.6389 49.8445 53.9089 49.6532 54.0127 49.3676L54.9314 46.8451L56.9133 48.0501C56.5983 49.3689 56.1864 50.5751 55.7002 51.6407C54.1777 51.2801 52.4958 51.0632 50.7589 51.0157ZM54.9296 45.1339C54.8139 45.0632 54.6821 45.0276 54.5502 45.0276C54.4689 45.0276 54.3871 45.0414 54.3083 45.0689C54.1021 45.1414 53.9389 45.3026 53.8639 45.5082L53.3021 47.0514L51.1689 41.6076L56.9839 40.9964L55.8721 42.2057C55.7239 42.367 55.6558 42.5857 55.6864 42.8026C55.7171 43.0195 55.8433 43.2107 56.0302 43.3245L60.5914 46.0976L59.4908 47.9076L54.9296 45.1339ZM59.6589 53.1164C58.9214 52.7007 58.0671 52.3389 57.1277 52.0376C57.5539 51.067 57.9214 49.9982 58.2196 48.8445L59.3552 49.5351C59.7002 49.7445 60.1496 49.6351 60.3589 49.2907L61.7139 47.0626H63.8852C63.0039 49.4239 61.5358 51.5014 59.6589 53.1164ZM63.8852 36.7545H58.6133C58.2764 34.9082 57.7696 33.2351 57.1308 31.7782C58.0689 31.477 58.9221 31.1157 59.6589 30.7007C61.5358 32.3157 63.0039 34.3932 63.8852 36.7545ZM40.3977 30.7001C41.1339 31.1151 41.9877 31.4764 42.9258 31.7776C42.2871 33.2345 41.7808 34.9076 41.4433 36.7539H36.1714C37.0527 34.3932 38.5202 32.3157 40.3977 30.7001Z" stroke="white" mask="url(#path-2-outside-1_12674_1677)"/>
</svg>
