<svg width="50" height="50" viewBox="0 0 50 50" fill="none" xmlns="http://www.w3.org/2000/svg">
<path d="M13.5418 6.25C7.21355 6.25 2.08348 11.3801 2.08348 17.7083C2.08348 22.3825 4.51671 26.905 8.14834 27.7777C9.54918 28.1143 10.6648 29.912 10.4251 31.9642C10.1042 34.7111 7.62023 37.4862 2.70192 39.6732C1.60683 40.1601 2.06537 41.8075 3.25455 41.6586C16.0724 40.0538 24.9574 31.6974 25 19.8747C25.0002 11.7438 20.1964 6.25 13.5418 6.25Z" fill="#ECEFFC"/>
<path d="M38.5418 6.25C32.2136 6.25 27.0835 11.3801 27.0835 17.7083C27.0835 22.3825 29.5167 26.905 33.1483 27.7777C34.5492 28.1143 35.6648 29.912 35.4251 31.9642C35.1042 34.7111 32.6202 37.4862 27.7019 39.6732C26.6068 40.1601 27.0654 41.8075 28.2546 41.6586C41.0724 40.0538 49.9574 31.6974 50 19.8747C50.0002 11.7438 45.1964 6.25 38.5418 6.25Z" fill="#ECEFFC"/>
</svg>
