<svg width="94" height="35" viewBox="0 0 94 35" fill="none" xmlns="http://www.w3.org/2000/svg">
<rect x="0.52832" y="0.5" width="92" height="34" rx="17" fill="white"/>
<rect x="0.52832" y="0.5" width="92" height="34" rx="17" stroke="#F9F0DC"/>
<path d="M20.1299 14.4205C20.0693 13.8826 19.8193 13.4659 19.3799 13.1705C18.9405 12.8712 18.3875 12.7216 17.7208 12.7216C17.2435 12.7216 16.8306 12.7973 16.4822 12.9489C16.1337 13.0966 15.8628 13.3011 15.6697 13.5625C15.4803 13.8201 15.3856 14.1136 15.3856 14.4432C15.3856 14.7197 15.45 14.9583 15.5787 15.1591C15.7113 15.3598 15.8837 15.5284 16.0958 15.6648C16.3117 15.7973 16.5428 15.9091 16.789 16C17.0352 16.0871 17.2719 16.1591 17.4992 16.2159L18.6356 16.5114C19.0068 16.6023 19.3875 16.7254 19.7776 16.8807C20.1678 17.036 20.5295 17.2405 20.8628 17.4943C21.1962 17.7481 21.4651 18.0625 21.6697 18.4375C21.878 18.8125 21.9822 19.2614 21.9822 19.7841C21.9822 20.4432 21.8117 21.0284 21.4708 21.5398C21.1337 22.0511 20.6431 22.4545 19.9992 22.75C19.359 23.0455 18.5844 23.1932 17.6753 23.1932C16.8041 23.1932 16.0503 23.0549 15.414 22.7784C14.7776 22.5019 14.2795 22.1098 13.9197 21.6023C13.5598 21.0909 13.3609 20.4848 13.3231 19.7841H15.0844C15.1185 20.2045 15.2549 20.5549 15.4935 20.8352C15.7359 21.1117 16.0447 21.3182 16.4197 21.4545C16.7984 21.5871 17.2132 21.6534 17.664 21.6534C18.1602 21.6534 18.6015 21.5758 18.9878 21.4205C19.378 21.2614 19.6848 21.0417 19.9083 20.7614C20.1318 20.4773 20.2435 20.1458 20.2435 19.767C20.2435 19.4223 20.145 19.1402 19.9481 18.9205C19.7549 18.7008 19.4916 18.5189 19.1583 18.375C18.8287 18.2311 18.4556 18.1042 18.039 17.9943L16.664 17.6193C15.7322 17.3655 14.9935 16.9924 14.4481 16.5C13.9064 16.0076 13.6356 15.3561 13.6356 14.5455C13.6356 13.875 13.8174 13.2898 14.181 12.7898C14.5447 12.2898 15.0371 11.9015 15.6583 11.625C16.2795 11.3447 16.9803 11.2045 17.7606 11.2045C18.5484 11.2045 19.2435 11.3428 19.8458 11.6193C20.4519 11.8958 20.9291 12.2765 21.2776 12.7614C21.6261 13.2424 21.8079 13.7955 21.8231 14.4205H20.1299ZM23.5063 12.875V11.3636H32.512V12.875H28.8813V23H27.1313V12.875H23.5063ZM34.502 23V11.3636H41.7975V12.875H36.2577V16.4205H41.4168V17.9261H36.2577V21.4886H41.8657V23H34.502ZM44.1427 23V11.3636H48.2904C49.1957 11.3636 49.9457 11.5284 50.5404 11.858C51.1351 12.1875 51.5802 12.6383 51.8756 13.2102C52.1711 13.7784 52.3188 14.4186 52.3188 15.1307C52.3188 15.8466 52.1692 16.4905 51.8699 17.0625C51.5745 17.6307 51.1275 18.0814 50.529 18.4148C49.9343 18.7443 49.1862 18.9091 48.2847 18.9091H45.4324V17.4205H48.1256C48.6976 17.4205 49.1616 17.322 49.5177 17.125C49.8737 16.9242 50.1351 16.6515 50.3018 16.3068C50.4684 15.9621 50.5518 15.5701 50.5518 15.1307C50.5518 14.6913 50.4684 14.3011 50.3018 13.9602C50.1351 13.6193 49.8718 13.3523 49.512 13.1591C49.1559 12.9659 48.6862 12.8693 48.1029 12.8693H45.8983V23H44.1427ZM58.789 16.4432V17.9205H53.6299V16.4432H58.789ZM65.0816 23.1932C64.1839 23.1894 63.4168 22.9527 62.7805 22.483C62.1441 22.0133 61.6573 21.3295 61.3202 20.4318C60.9831 19.5341 60.8145 18.4527 60.8145 17.1875C60.8145 15.9261 60.9831 14.8485 61.3202 13.9545C61.6611 13.0606 62.1498 12.3788 62.7861 11.9091C63.4263 11.4394 64.1914 11.2045 65.0816 11.2045C65.9717 11.2045 66.735 11.4413 67.3714 11.9148C68.0077 12.3845 68.4945 13.0663 68.8316 13.9602C69.1725 14.8504 69.343 15.9261 69.343 17.1875C69.343 18.4564 69.1744 19.5398 68.8373 20.4375C68.5001 21.3314 68.0134 22.0152 67.377 22.4886C66.7407 22.9583 65.9755 23.1932 65.0816 23.1932ZM65.0816 21.6761C65.8695 21.6761 66.485 21.2917 66.9282 20.5227C67.3751 19.7538 67.5986 18.642 67.5986 17.1875C67.5986 16.2216 67.4964 15.4053 67.2918 14.7386C67.0911 14.0682 66.8013 13.5606 66.4225 13.2159C66.0475 12.8674 65.6005 12.6932 65.0816 12.6932C64.2975 12.6932 63.682 13.0795 63.235 13.8523C62.788 14.625 62.5626 15.7367 62.5589 17.1875C62.5589 18.1572 62.6592 18.9773 62.86 19.6477C63.0645 20.3144 63.3543 20.8201 63.7293 21.1648C64.1043 21.5057 64.5551 21.6761 65.0816 21.6761ZM75.4097 23.1591C74.6294 23.1591 73.9324 23.0246 73.3188 22.7557C72.709 22.4867 72.226 22.1136 71.8699 21.6364C71.5177 21.1553 71.3283 20.5985 71.3018 19.9659H73.0858C73.1086 20.3106 73.2241 20.6098 73.4324 20.8636C73.6446 21.1136 73.9211 21.3068 74.262 21.4432C74.6029 21.5795 74.9817 21.6477 75.3983 21.6477C75.8567 21.6477 76.262 21.5682 76.6143 21.4091C76.9703 21.25 77.2487 21.0284 77.4495 20.7443C77.6502 20.4564 77.7506 20.125 77.7506 19.75C77.7506 19.3598 77.6502 19.017 77.4495 18.7216C77.2525 18.4223 76.9627 18.1875 76.5802 18.017C76.2014 17.8466 75.743 17.7614 75.2052 17.7614H74.2222V16.3295H75.2052C75.637 16.3295 76.0158 16.2519 76.3415 16.0966C76.6711 15.9413 76.9287 15.7254 77.1143 15.4489C77.2999 15.1686 77.3927 14.8409 77.3927 14.4659C77.3927 14.1061 77.3112 13.7936 77.1483 13.5284C76.9893 13.2595 76.762 13.0492 76.4665 12.8977C76.1749 12.7462 75.8302 12.6705 75.4324 12.6705C75.0537 12.6705 74.6995 12.7405 74.3699 12.8807C74.0442 13.017 73.779 13.214 73.5745 13.4716C73.3699 13.7254 73.2601 14.0303 73.2449 14.3864H71.5461C71.565 13.7576 71.7506 13.2045 72.1029 12.7273C72.459 12.25 72.9287 11.8769 73.512 11.608C74.0953 11.339 74.743 11.2045 75.4552 11.2045C76.2014 11.2045 76.8453 11.3504 77.387 11.642C77.9324 11.9299 78.3529 12.3144 78.6483 12.7955C78.9476 13.2765 79.0953 13.803 79.0915 14.375C79.0953 15.0265 78.9135 15.5795 78.5461 16.0341C78.1824 16.4886 77.6976 16.7936 77.0915 16.9489V17.0398C77.8643 17.1572 78.4627 17.464 78.887 17.9602C79.315 18.4564 79.5271 19.072 79.5233 19.8068C79.5271 20.447 79.3491 21.0208 78.9893 21.5284C78.6332 22.036 78.1465 22.4356 77.529 22.7273C76.9116 23.0152 76.2052 23.1591 75.4097 23.1591Z" fill="#2B3244"/>
</svg>
