<svg width="93" height="35" viewBox="0 0 93 35" fill="none" xmlns="http://www.w3.org/2000/svg">
<rect x="0.52832" y="0.5" width="91" height="34" rx="17" fill="white"/>
<rect x="0.52832" y="0.5" width="91" height="34" rx="17" stroke="#F9F0DC"/>
<path d="M19.8799 14.4205C19.8193 13.8826 19.5693 13.4659 19.1299 13.1705C18.6905 12.8712 18.1375 12.7216 17.4708 12.7216C16.9935 12.7216 16.5806 12.7973 16.2322 12.9489C15.8837 13.0966 15.6128 13.3011 15.4197 13.5625C15.2303 13.8201 15.1356 14.1136 15.1356 14.4432C15.1356 14.7197 15.2 14.9583 15.3287 15.1591C15.4613 15.3598 15.6337 15.5284 15.8458 15.6648C16.0617 15.7973 16.2928 15.9091 16.539 16C16.7852 16.0871 17.0219 16.1591 17.2492 16.2159L18.3856 16.5114C18.7568 16.6023 19.1375 16.7254 19.5276 16.8807C19.9178 17.036 20.2795 17.2405 20.6128 17.4943C20.9462 17.7481 21.2151 18.0625 21.4197 18.4375C21.628 18.8125 21.7322 19.2614 21.7322 19.7841C21.7322 20.4432 21.5617 21.0284 21.2208 21.5398C20.8837 22.0511 20.3931 22.4545 19.7492 22.75C19.109 23.0455 18.3344 23.1932 17.4253 23.1932C16.5541 23.1932 15.8003 23.0549 15.164 22.7784C14.5276 22.5019 14.0295 22.1098 13.6697 21.6023C13.3098 21.0909 13.1109 20.4848 13.0731 19.7841H14.8344C14.8685 20.2045 15.0049 20.5549 15.2435 20.8352C15.4859 21.1117 15.7947 21.3182 16.1697 21.4545C16.5484 21.5871 16.9632 21.6534 17.414 21.6534C17.9102 21.6534 18.3515 21.5758 18.7378 21.4205C19.128 21.2614 19.4348 21.0417 19.6583 20.7614C19.8818 20.4773 19.9935 20.1458 19.9935 19.767C19.9935 19.4223 19.895 19.1402 19.6981 18.9205C19.5049 18.7008 19.2416 18.5189 18.9083 18.375C18.5787 18.2311 18.2056 18.1042 17.789 17.9943L16.414 17.6193C15.4822 17.3655 14.7435 16.9924 14.1981 16.5C13.6564 16.0076 13.3856 15.3561 13.3856 14.5455C13.3856 13.875 13.5674 13.2898 13.931 12.7898C14.2947 12.2898 14.7871 11.9015 15.4083 11.625C16.0295 11.3447 16.7303 11.2045 17.5106 11.2045C18.2984 11.2045 18.9935 11.3428 19.5958 11.6193C20.2019 11.8958 20.6791 12.2765 21.0276 12.7614C21.3761 13.2424 21.5579 13.7955 21.5731 14.4205H19.8799ZM23.2563 12.875V11.3636H32.262V12.875H28.6313V23H26.8813V12.875H23.2563ZM34.252 23V11.3636H41.5475V12.875H36.0077V16.4205H41.1668V17.9261H36.0077V21.4886H41.6157V23H34.252ZM43.8927 23V11.3636H48.0404C48.9457 11.3636 49.6957 11.5284 50.2904 11.858C50.8851 12.1875 51.3302 12.6383 51.6256 13.2102C51.9211 13.7784 52.0688 14.4186 52.0688 15.1307C52.0688 15.8466 51.9192 16.4905 51.6199 17.0625C51.3245 17.6307 50.8775 18.0814 50.279 18.4148C49.6843 18.7443 48.9362 18.9091 48.0347 18.9091H45.1824V17.4205H47.8756C48.4476 17.4205 48.9116 17.322 49.2677 17.125C49.6237 16.9242 49.8851 16.6515 50.0518 16.3068C50.2184 15.9621 50.3018 15.5701 50.3018 15.1307C50.3018 14.6913 50.2184 14.3011 50.0518 13.9602C49.8851 13.6193 49.6218 13.3523 49.262 13.1591C48.9059 12.9659 48.4362 12.8693 47.8529 12.8693H45.6483V23H43.8927ZM58.539 16.4432V17.9205H53.3799V16.4432H58.539ZM64.8316 23.1932C63.9339 23.1894 63.1668 22.9527 62.5305 22.483C61.8941 22.0133 61.4073 21.3295 61.0702 20.4318C60.7331 19.5341 60.5645 18.4527 60.5645 17.1875C60.5645 15.9261 60.7331 14.8485 61.0702 13.9545C61.4111 13.0606 61.8998 12.3788 62.5361 11.9091C63.1763 11.4394 63.9414 11.2045 64.8316 11.2045C65.7217 11.2045 66.485 11.4413 67.1214 11.9148C67.7577 12.3845 68.2445 13.0663 68.5816 13.9602C68.9225 14.8504 69.093 15.9261 69.093 17.1875C69.093 18.4564 68.9244 19.5398 68.5873 20.4375C68.2501 21.3314 67.7634 22.0152 67.127 22.4886C66.4907 22.9583 65.7255 23.1932 64.8316 23.1932ZM64.8316 21.6761C65.6195 21.6761 66.235 21.2917 66.6782 20.5227C67.1251 19.7538 67.3486 18.642 67.3486 17.1875C67.3486 16.2216 67.2464 15.4053 67.0418 14.7386C66.8411 14.0682 66.5513 13.5606 66.1725 13.2159C65.7975 12.8674 65.3505 12.6932 64.8316 12.6932C64.0475 12.6932 63.432 13.0795 62.985 13.8523C62.538 14.625 62.3126 15.7367 62.3089 17.1875C62.3089 18.1572 62.4092 18.9773 62.61 19.6477C62.8145 20.3144 63.1043 20.8201 63.4793 21.1648C63.8543 21.5057 64.3051 21.6761 64.8316 21.6761ZM71.1086 23V21.7273L75.0461 17.6477C75.4665 17.2045 75.8131 16.8163 76.0858 16.483C76.3624 16.1458 76.5688 15.8258 76.7052 15.5227C76.8415 15.2197 76.9097 14.8977 76.9097 14.5568C76.9097 14.1705 76.8188 13.8371 76.637 13.5568C76.4552 13.2727 76.2071 13.0549 75.8927 12.9034C75.5783 12.7481 75.2241 12.6705 74.8302 12.6705C74.4135 12.6705 74.0499 12.7557 73.7393 12.9261C73.4287 13.0966 73.19 13.3371 73.0233 13.6477C72.8567 13.9583 72.7733 14.322 72.7733 14.7386H71.0972C71.0972 14.0303 71.2601 13.411 71.5858 12.8807C71.9116 12.3504 72.3586 11.9394 72.9268 11.6477C73.4949 11.3523 74.1408 11.2045 74.8643 11.2045C75.5953 11.2045 76.2393 11.3504 76.7961 11.642C77.3567 11.9299 77.7942 12.3239 78.1086 12.8239C78.423 13.3201 78.5802 13.8807 78.5802 14.5057C78.5802 14.9375 78.4987 15.3598 78.3358 15.7727C78.1768 16.1856 77.8983 16.6458 77.5006 17.1534C77.1029 17.6572 76.5499 18.2689 75.8415 18.9886L73.529 21.4091V21.4943H78.7677V23H71.1086Z" fill="#2B3244"/>
</svg>
