<svg width="91" height="35" viewBox="0 0 91 35" fill="none" xmlns="http://www.w3.org/2000/svg">
<rect x="0.52832" y="0.5" width="89" height="34" rx="17" fill="white"/>
<rect x="0.52832" y="0.5" width="89" height="34" rx="17" stroke="#F9F0DC"/>
<path d="M20.0049 14.4205C19.9443 13.8826 19.6943 13.4659 19.2549 13.1705C18.8155 12.8712 18.2625 12.7216 17.5958 12.7216C17.1185 12.7216 16.7056 12.7973 16.3572 12.9489C16.0087 13.0966 15.7378 13.3011 15.5447 13.5625C15.3553 13.8201 15.2606 14.1136 15.2606 14.4432C15.2606 14.7197 15.325 14.9583 15.4537 15.1591C15.5863 15.3598 15.7587 15.5284 15.9708 15.6648C16.1867 15.7973 16.4178 15.9091 16.664 16C16.9102 16.0871 17.1469 16.1591 17.3742 16.2159L18.5106 16.5114C18.8818 16.6023 19.2625 16.7254 19.6526 16.8807C20.0428 17.036 20.4045 17.2405 20.7378 17.4943C21.0712 17.7481 21.3401 18.0625 21.5447 18.4375C21.753 18.8125 21.8572 19.2614 21.8572 19.7841C21.8572 20.4432 21.6867 21.0284 21.3458 21.5398C21.0087 22.0511 20.5181 22.4545 19.8742 22.75C19.234 23.0455 18.4594 23.1932 17.5503 23.1932C16.6791 23.1932 15.9253 23.0549 15.289 22.7784C14.6526 22.5019 14.1545 22.1098 13.7947 21.6023C13.4348 21.0909 13.2359 20.4848 13.1981 19.7841H14.9594C14.9935 20.2045 15.1299 20.5549 15.3685 20.8352C15.6109 21.1117 15.9197 21.3182 16.2947 21.4545C16.6734 21.5871 17.0882 21.6534 17.539 21.6534C18.0352 21.6534 18.4765 21.5758 18.8628 21.4205C19.253 21.2614 19.5598 21.0417 19.7833 20.7614C20.0068 20.4773 20.1185 20.1458 20.1185 19.767C20.1185 19.4223 20.02 19.1402 19.8231 18.9205C19.6299 18.7008 19.3666 18.5189 19.0333 18.375C18.7037 18.2311 18.3306 18.1042 17.914 17.9943L16.539 17.6193C15.6072 17.3655 14.8685 16.9924 14.3231 16.5C13.7814 16.0076 13.5106 15.3561 13.5106 14.5455C13.5106 13.875 13.6924 13.2898 14.056 12.7898C14.4197 12.2898 14.9121 11.9015 15.5333 11.625C16.1545 11.3447 16.8553 11.2045 17.6356 11.2045C18.4234 11.2045 19.1185 11.3428 19.7208 11.6193C20.3269 11.8958 20.8041 12.2765 21.1526 12.7614C21.5011 13.2424 21.6829 13.7955 21.6981 14.4205H20.0049ZM23.3813 12.875V11.3636H32.387V12.875H28.7563V23H27.0063V12.875H23.3813ZM34.377 23V11.3636H41.6725V12.875H36.1327V16.4205H41.2918V17.9261H36.1327V21.4886H41.7407V23H34.377ZM44.0177 23V11.3636H48.1654C49.0707 11.3636 49.8207 11.5284 50.4154 11.858C51.0101 12.1875 51.4552 12.6383 51.7506 13.2102C52.0461 13.7784 52.1938 14.4186 52.1938 15.1307C52.1938 15.8466 52.0442 16.4905 51.7449 17.0625C51.4495 17.6307 51.0025 18.0814 50.404 18.4148C49.8093 18.7443 49.0612 18.9091 48.1597 18.9091H45.3074V17.4205H48.0006C48.5726 17.4205 49.0366 17.322 49.3927 17.125C49.7487 16.9242 50.0101 16.6515 50.1768 16.3068C50.3434 15.9621 50.4268 15.5701 50.4268 15.1307C50.4268 14.6913 50.3434 14.3011 50.1768 13.9602C50.0101 13.6193 49.7468 13.3523 49.387 13.1591C49.0309 12.9659 48.5612 12.8693 47.9779 12.8693H45.7733V23H44.0177ZM58.664 16.4432V17.9205H53.5049V16.4432H58.664ZM64.9566 23.1932C64.0589 23.1894 63.2918 22.9527 62.6555 22.483C62.0191 22.0133 61.5323 21.3295 61.1952 20.4318C60.8581 19.5341 60.6895 18.4527 60.6895 17.1875C60.6895 15.9261 60.8581 14.8485 61.1952 13.9545C61.5361 13.0606 62.0248 12.3788 62.6611 11.9091C63.3013 11.4394 64.0664 11.2045 64.9566 11.2045C65.8467 11.2045 66.61 11.4413 67.2464 11.9148C67.8827 12.3845 68.3695 13.0663 68.7066 13.9602C69.0475 14.8504 69.218 15.9261 69.218 17.1875C69.218 18.4564 69.0494 19.5398 68.7123 20.4375C68.3751 21.3314 67.8884 22.0152 67.252 22.4886C66.6157 22.9583 65.8505 23.1932 64.9566 23.1932ZM64.9566 21.6761C65.7445 21.6761 66.36 21.2917 66.8032 20.5227C67.2501 19.7538 67.4736 18.642 67.4736 17.1875C67.4736 16.2216 67.3714 15.4053 67.1668 14.7386C66.9661 14.0682 66.6763 13.5606 66.2975 13.2159C65.9225 12.8674 65.4755 12.6932 64.9566 12.6932C64.1725 12.6932 63.557 13.0795 63.11 13.8523C62.663 14.625 62.4376 15.7367 62.4339 17.1875C62.4339 18.1572 62.5342 18.9773 62.735 19.6477C62.9395 20.3144 63.2293 20.8201 63.6043 21.1648C63.9793 21.5057 64.4301 21.6761 64.9566 21.6761ZM75.6483 11.3636V23H73.887V13.125H73.8188L71.0347 14.9432V13.2614L73.9381 11.3636H75.6483Z" fill="#2B3244"/>
</svg>
