<svg width="126" height="52" viewBox="0 0 126 52" fill="none" xmlns="http://www.w3.org/2000/svg">
<path d="M12.1161 16.3648L17.0424 15.1164L19.1006 21.4598L12.1161 16.3648ZM23.4533 8.16553H14.7817L12.1161 0L9.45047 8.16553H0.778809L7.79712 13.2268L5.13151 21.3923L12.1498 16.3311L16.4688 13.2268L23.4533 8.16553Z" fill="#219653"/>
<path d="M29.9316 3.08119V1.05671H41.9948V3.08119H37.1315V16.6437H34.7874V3.08119H29.9316Z" fill="#2E2B2D"/>
<path d="M43.1568 16.6437V4.95345H45.3563V6.81049H45.4781C45.6912 6.18133 46.0666 5.68663 46.6045 5.32638C47.1474 4.96106 47.7613 4.7784 48.4463 4.7784C48.5884 4.7784 48.7558 4.78348 48.9486 4.79362C49.1465 4.80377 49.3012 4.81646 49.4129 4.83168V7.00837C49.3215 6.98301 49.1592 6.9551 48.9258 6.92466C48.6924 6.88914 48.459 6.87138 48.2256 6.87138C47.6877 6.87138 47.2083 6.98554 46.7871 7.21387C46.3711 7.43712 46.0413 7.74916 45.7977 8.15C45.5542 8.54576 45.4324 8.99734 45.4324 9.50473V16.6437H43.1568Z" fill="#2E2B2D"/>
<path d="M58.6803 11.7956V4.95345H60.9636V16.6437H58.726V14.6192H58.6042C58.3353 15.2433 57.904 15.7634 57.3104 16.1794C56.7218 16.5904 55.9886 16.7959 55.1109 16.7959C54.3599 16.7959 53.6952 16.631 53.1168 16.3012C52.5435 15.9663 52.0919 15.4716 51.7621 14.8171C51.4374 14.1626 51.275 13.3533 51.275 12.3892V4.95345H53.5506V12.1152C53.5506 12.9118 53.7713 13.5461 54.2128 14.018C54.6542 14.4898 55.2276 14.7258 55.9328 14.7258C56.359 14.7258 56.7827 14.6192 57.2038 14.4061C57.63 14.193 57.9827 13.8708 58.2617 13.4395C58.5459 13.0082 58.6854 12.4603 58.6803 11.7956Z" fill="#2E2B2D"/>
<path d="M72.6741 7.80751L70.6116 8.17283C70.5254 7.90899 70.3884 7.65783 70.2006 7.41936C70.018 7.18089 69.7693 6.98554 69.4548 6.83333C69.1402 6.68111 68.747 6.605 68.2751 6.605C67.6307 6.605 67.0929 6.74961 66.6616 7.03882C66.2303 7.32296 66.0147 7.69081 66.0147 8.14239C66.0147 8.53308 66.1593 8.84766 66.4485 9.08613C66.7377 9.3246 67.2045 9.51995 67.8489 9.67217L69.7059 10.0984C70.7816 10.347 71.5833 10.7301 72.1109 11.2476C72.6386 11.7651 72.9025 12.4374 72.9025 13.2645C72.9025 13.9647 72.6995 14.5888 72.2936 15.1367C71.8928 15.6796 71.3321 16.1059 70.6116 16.4154C69.8962 16.7249 69.0666 16.8796 68.1229 16.8796C66.8138 16.8796 65.7458 16.6006 64.9187 16.0424C64.0917 15.4792 63.5843 14.6801 63.3965 13.645L65.5961 13.3101C65.7331 13.8835 66.0147 14.3173 66.4409 14.6116C66.8671 14.9008 67.4227 15.0454 68.1076 15.0454C68.8535 15.0454 69.4497 14.8907 69.8962 14.5812C70.3427 14.2666 70.5659 13.8835 70.5659 13.4319C70.5659 13.0666 70.4289 12.7596 70.155 12.511C69.886 12.2624 69.4725 12.0747 68.9144 11.9478L66.9356 11.514C65.8447 11.2654 65.0379 10.8696 64.5153 10.3267C63.9978 9.78379 63.739 9.09628 63.739 8.26416C63.739 7.57411 63.9318 6.97032 64.3175 6.45278C64.7031 5.93525 65.2358 5.53187 65.9157 5.24266C66.5956 4.94838 67.3745 4.80123 68.2523 4.80123C69.5156 4.80123 70.5101 5.07522 71.2357 5.6232C71.9613 6.16611 72.4407 6.89421 72.6741 7.80751Z" fill="#2E2B2D"/>
<path d="M80.7543 4.95345V6.78005H74.3688V4.95345H80.7543ZM76.0813 2.15267H78.3569V13.2112C78.3569 13.6526 78.4229 13.985 78.5548 14.2082C78.6867 14.4264 78.8567 14.5761 79.0647 14.6573C79.2778 14.7334 79.5087 14.7714 79.7573 14.7714C79.94 14.7714 80.0998 14.7587 80.2368 14.7334C80.3738 14.708 80.4803 14.6877 80.5564 14.6725L80.9674 16.5524C80.8355 16.6031 80.6478 16.6538 80.4042 16.7046C80.1607 16.7604 79.8563 16.7908 79.4909 16.7959C78.8922 16.8061 78.3341 16.6995 77.8166 16.4762C77.299 16.253 76.8804 15.908 76.5608 15.4412C76.2411 14.9744 76.0813 14.3883 76.0813 13.6831V2.15267Z" fill="#2E2B2D"/>
<path d="M83.1645 21.0275V4.95345H85.3868V6.84855H85.5771C85.709 6.605 85.8993 6.3234 86.1479 6.00375C86.3965 5.68409 86.7415 5.40503 87.183 5.16655C87.6244 4.92301 88.2079 4.80123 88.9335 4.80123C89.8772 4.80123 90.7195 5.03971 91.4603 5.51665C92.201 5.9936 92.782 6.68111 93.2031 7.57919C93.6294 8.47727 93.8425 9.558 93.8425 10.8214C93.8425 12.0848 93.6319 13.1681 93.2108 14.0712C92.7896 14.9693 92.2112 15.6619 91.4755 16.149C90.7398 16.631 89.9 16.872 88.9563 16.872C88.246 16.872 87.665 16.7528 87.2134 16.5143C86.7669 16.2758 86.4168 15.9968 86.1631 15.6771C85.9094 15.3575 85.7141 15.0733 85.5771 14.8247H85.4401V21.0275H83.1645ZM85.3944 10.7986C85.3944 11.6205 85.5137 12.341 85.7521 12.96C85.9906 13.5791 86.3356 14.0636 86.7872 14.4137C87.2388 14.7587 87.7918 14.9312 88.4464 14.9312C89.1263 14.9312 89.6945 14.7511 90.1512 14.3909C90.6078 14.0256 90.9529 13.5309 91.1863 12.9068C91.4247 12.2827 91.544 11.5799 91.544 10.7986C91.544 10.0273 91.4273 9.33475 91.1939 8.72081C90.9656 8.10687 90.6205 7.62232 90.1588 7.26714C89.7022 6.91197 89.1313 6.73439 88.4464 6.73439C87.7868 6.73439 87.2286 6.90436 86.772 7.24431C86.3204 7.58426 85.9779 8.05867 85.7445 8.66754C85.5111 9.2764 85.3944 9.98675 85.3944 10.7986Z" fill="#2E2B2D"/>
<path d="M96.2849 16.6437V4.95345H98.5606V16.6437H96.2849ZM97.4342 3.14968C97.0384 3.14968 96.6984 3.01776 96.4143 2.75392C96.1352 2.485 95.9957 2.16535 95.9957 1.79496C95.9957 1.41949 96.1352 1.09983 96.4143 0.835991C96.6984 0.567075 97.0384 0.432617 97.4342 0.432617C97.8299 0.432617 98.1673 0.567075 98.4464 0.835991C98.7305 1.09983 98.8726 1.41949 98.8726 1.79496C98.8726 2.16535 98.7305 2.485 98.4464 2.75392C98.1673 3.01776 97.8299 3.14968 97.4342 3.14968Z" fill="#2E2B2D"/>
<path d="M103.79 1.05671V16.6437H101.515V1.05671H103.79Z" fill="#2E2B2D"/>
<path d="M111.669 16.8796C110.573 16.8796 109.617 16.6285 108.8 16.1262C107.983 15.6238 107.349 14.9211 106.897 14.018C106.445 13.1148 106.22 12.0594 106.22 10.8518C106.22 9.63919 106.445 8.57874 106.897 7.67052C107.349 6.76229 107.983 6.05702 108.8 5.55471C109.617 5.05239 110.573 4.80123 111.669 4.80123C112.765 4.80123 113.721 5.05239 114.538 5.55471C115.355 6.05702 115.989 6.76229 116.441 7.67052C116.893 8.57874 117.118 9.63919 117.118 10.8518C117.118 12.0594 116.893 13.1148 116.441 14.018C115.989 14.9211 115.355 15.6238 114.538 16.1262C113.721 16.6285 112.765 16.8796 111.669 16.8796ZM111.677 14.9693C112.387 14.9693 112.976 14.7816 113.442 14.4061C113.909 14.0306 114.254 13.5309 114.477 12.9068C114.706 12.2827 114.82 11.5952 114.82 10.8442C114.82 10.0984 114.706 9.4134 114.477 8.78931C114.254 8.16015 113.909 7.6553 113.442 7.27475C112.976 6.89421 112.387 6.70394 111.677 6.70394C110.961 6.70394 110.368 6.89421 109.896 7.27475C109.429 7.6553 109.081 8.16015 108.853 8.78931C108.63 9.4134 108.518 10.0984 108.518 10.8442C108.518 11.5952 108.63 12.2827 108.853 12.9068C109.081 13.5309 109.429 14.0306 109.896 14.4061C110.368 14.7816 110.961 14.9693 111.677 14.9693Z" fill="#2E2B2D"/>
<path d="M125.008 4.95345V6.78005H118.623V4.95345H125.008ZM120.335 2.15267H122.611V13.2112C122.611 13.6526 122.677 13.985 122.809 14.2082C122.941 14.4264 123.111 14.5761 123.319 14.6573C123.532 14.7334 123.763 14.7714 124.011 14.7714C124.194 14.7714 124.354 14.7587 124.491 14.7334C124.628 14.708 124.734 14.6877 124.81 14.6725L125.221 16.5524C125.089 16.6031 124.902 16.6538 124.658 16.7046C124.415 16.7604 124.11 16.7908 123.745 16.7959C123.146 16.8061 122.588 16.6995 122.07 16.4762C121.553 16.253 121.134 15.908 120.815 15.4412C120.495 14.9744 120.335 14.3883 120.335 13.6831V2.15267Z" fill="#2E2B2D"/>
<rect width="20.7804" height="20.7804" transform="translate(0.779297 30.645)" fill="#219653"/>
<path d="M11.1696 44.8549L14.33 44.0086L15.6504 48.3085L11.1696 44.8549ZM18.4428 39.2971H12.8797L11.1696 33.7622L9.45957 39.2971H3.89648L8.39891 42.7278L6.68885 48.2627L11.1913 44.832L13.962 42.7278L18.4428 39.2971Z" fill="white"/>
<rect width="20.7804" height="20.7804" transform="translate(26.5845 30.645)" fill="#219653"/>
<path d="M36.9748 44.8549L40.1351 44.0086L41.4556 48.3085L36.9748 44.8549ZM44.2479 39.2971H38.6848L36.9748 33.7622L35.2647 39.2971H29.7017L34.2041 42.7278L32.494 48.2627L36.9964 44.832L39.7672 42.7278L44.2479 39.2971Z" fill="white"/>
<rect width="20.7804" height="20.7804" transform="translate(52.3892 30.645)" fill="#219653"/>
<path d="M62.7795 44.8549L65.9398 44.0086L67.2603 48.3085L62.7795 44.8549ZM70.0526 39.2971H64.4895L62.7795 33.7622L61.0694 39.2971H55.5063L60.0088 42.7278L58.2987 48.2627L62.8011 44.832L65.5718 42.7278L70.0526 39.2971Z" fill="white"/>
<rect width="20.7804" height="20.7804" transform="translate(78.1943 30.645)" fill="#219653"/>
<path d="M88.5847 44.8549L91.745 44.0086L93.0654 48.3085L88.5847 44.8549ZM95.8578 39.2971H90.2947L88.5847 33.7622L86.8746 39.2971H81.3115L85.8139 42.7278L84.1039 48.2627L88.6063 44.832L91.377 42.7278L95.8578 39.2971Z" fill="white"/>
<rect width="20.7804" height="20.7804" transform="translate(103.999 30.645)" fill="url(#paint0_linear_10673_1214)"/>
<path d="M114.389 44.8549L117.55 44.0086L118.87 48.3085L114.389 44.8549ZM121.662 39.2971H116.099L114.389 33.7622L112.679 39.2971H107.116L111.619 42.7278L109.909 48.2627L114.411 44.832L117.182 42.7278L121.662 39.2971Z" fill="white"/>
<defs>
<linearGradient id="paint0_linear_10673_1214" x1="0" y1="10.3902" x2="20.7804" y2="10.3902" gradientUnits="userSpaceOnUse">
<stop stop-color="#219653"/>
<stop offset="0.5" stop-color="#219653"/>
<stop offset="0.5001" stop-color="#219653" stop-opacity="0"/>
<stop offset="0.5002" stop-color="#D9D9D9"/>
<stop offset="0.9998" stop-color="#D9D9D9"/>
<stop offset="0.9999" stop-color="#219653" stop-opacity="0"/>
<stop offset="1" stop-color="#D9D9D9"/>
</linearGradient>
</defs>
</svg>
