<svg width="101" height="100" viewBox="0 0 101 100" fill="none" xmlns="http://www.w3.org/2000/svg">
<rect x="0.0283203" width="100" height="100" fill="#FFB800"/>
<g clip-path="url(#clip0_12674_1687)">
<path d="M79.5336 49.974L69.4497 39.555C69.1186 39.2128 68.6628 39.0197 68.1866 39.0197H61.7429V31.4358C61.7429 30.465 60.9558 29.678 59.985 29.678H27.336C26.3652 29.678 25.5782 30.465 25.5782 31.4358V36.7109H24.2477C23.2769 36.7109 22.4898 37.4979 22.4898 38.4687C22.4898 39.4395 23.2769 40.2265 24.2477 40.2265H25.5782V43.7438H21.7861C20.8154 43.7438 20.0283 44.5308 20.0283 45.5016C20.0283 46.4724 20.8154 47.2594 21.7861 47.2594H25.5782V63.4028C25.5782 64.3736 26.3652 65.1606 27.336 65.1606H31.0777C31.4185 66.295 32.0364 67.3344 32.8975 68.1955C34.2688 69.567 36.0921 70.3221 38.0315 70.3221C39.9708 70.3221 41.794 69.567 43.1655 68.1955C44.0369 67.3241 44.639 66.2842 44.9739 65.1799H61.7604C62.0954 66.2842 62.6975 67.3241 63.5689 68.1955C64.9402 69.567 66.7635 70.3221 68.7029 70.3221C70.6422 70.3221 72.4654 69.567 73.8368 68.1955C74.7082 67.3241 75.3104 66.2842 75.6453 65.1799H78.2705C79.2413 65.1799 80.0283 64.3929 80.0283 63.4221V51.1965C80.0283 50.7402 79.8509 50.3019 79.5336 49.974ZM74.123 49.4387H61.6935V42.5353H67.4417L74.123 49.4387ZM29.0938 47.2593H38.243C39.2138 47.2593 40.0008 46.4722 40.0008 45.5015C40.0008 44.5307 39.2138 43.7436 38.243 43.7436H29.0938V40.2264H39.5324C40.5032 40.2264 41.2902 39.4393 41.2902 38.4686C41.2902 37.4978 40.5032 36.7108 39.5324 36.7108H29.0938V33.1935H39.5324H58.2271L58.1778 61.6641H45.1538C44.8872 60.2939 44.2245 58.9862 43.1655 57.9271C41.7941 56.5556 39.9708 55.8005 38.0315 55.8005C36.0921 55.8005 34.2689 56.5556 32.8975 57.9271C31.8663 58.9583 31.1836 60.2452 30.9084 61.6447H29.0938V47.2593ZM40.6796 65.7096C39.9722 66.417 39.0317 66.8065 38.0315 66.8065C37.0313 66.8065 36.0907 66.417 35.3834 65.7096C34.6761 65.0023 34.2865 64.0617 34.2865 63.0614C34.2865 62.061 34.6761 61.1204 35.3834 60.4131C36.0907 59.7058 37.0313 59.3162 38.0315 59.3162C39.0317 59.3162 39.9722 59.7058 40.6796 60.4131C42.1397 61.8734 42.1397 64.2493 40.6796 65.7096ZM71.3507 65.7096C70.6434 66.417 69.7028 66.8065 68.7026 66.8065C67.7024 66.8065 66.7619 66.417 66.0545 65.7096C64.5944 64.2493 64.5944 61.8735 66.0545 60.4132C66.7619 59.7059 67.7024 59.3163 68.7026 59.3163C69.7028 59.3163 70.6434 59.7059 71.3507 60.4132C72.058 61.1206 72.4475 62.0611 72.4475 63.0615C72.4476 64.0617 72.058 65.0023 71.3507 65.7096ZM75.825 61.6642C75.5584 60.294 74.8957 58.9863 73.8366 57.9272C72.4653 56.5558 70.642 55.8006 68.7026 55.8006C66.7633 55.8006 64.9401 56.5558 63.5686 57.9272C62.6349 58.8611 62.0111 59.9884 61.6934 61.1811V52.9543H76.5127V61.6642H75.825Z" fill="white"/>
</g>
<defs>
<clipPath id="clip0_12674_1687">
<rect width="60" height="60" fill="white" transform="translate(20.0283 20)"/>
</clipPath>
</defs>
</svg>
